<svg width="4115" height="809" viewBox="0 0 4115 809" fill="none" xmlns="http://www.w3.org/2000/svg">
<path d="M1366.26 286.637H1248.69V599.066H1146.12V286.637H1028.54V201.581H1366.26V286.637ZM1482.76 599.066H1386.03V292.614H1482.76V403.381C1485.17 386.426 1488.69 371.138 1493.32 357.518C1498.04 343.805 1504.21 332.177 1511.8 322.634C1519.4 312.998 1528.57 305.585 1539.32 300.397C1550.07 295.208 1562.67 292.614 1577.12 292.614H1597.55V383.229H1556.14C1541.78 383.229 1529.87 384.851 1520.42 388.093C1510.97 391.336 1503.46 396.293 1497.91 402.964C1492.35 409.636 1488.41 418.113 1486.09 428.398C1483.87 438.683 1482.76 450.866 1482.76 464.95V599.066ZM1845.95 599.066H1749.22V292.614H1845.95V386.426C1851.98 352.7 1863.79 327.266 1881.39 310.125C1899 292.892 1922.07 284.275 1950.61 284.275C1982.76 284.275 2006.94 295.486 2023.15 317.908C2039.37 340.238 2047.47 373.501 2047.47 417.696V599.066H1950.74V438.544C1950.74 414.731 1946.62 396.942 1938.37 385.175C1930.13 373.408 1917.57 367.524 1900.71 367.524C1882.92 367.524 1869.35 373.732 1859.99 386.148C1850.63 398.471 1845.95 416.677 1845.95 440.767V599.066ZM2378.16 494.136C2373.9 511.74 2367.23 527.538 2358.15 541.528C2349.07 555.519 2338.04 567.425 2325.07 577.246C2312.1 586.975 2297.37 594.434 2280.88 599.622C2264.48 604.811 2246.83 607.405 2227.92 607.405C2212.36 607.405 2197.67 605.645 2183.87 602.124C2170.06 598.603 2157.32 593.553 2145.65 586.975C2134.07 580.304 2123.64 572.243 2114.38 562.792C2105.2 553.249 2097.37 542.501 2090.89 530.549C2084.5 518.504 2079.59 505.347 2076.16 491.078C2072.73 476.81 2071.01 461.661 2071.01 445.632C2071.01 429.602 2072.68 414.5 2076.02 400.324C2079.45 386.055 2084.31 372.945 2090.61 360.992C2097 349.04 2104.74 338.338 2113.82 328.888C2122.99 319.344 2133.32 311.283 2144.81 304.705C2156.4 298.127 2169 293.077 2182.62 289.556C2196.33 286.035 2210.88 284.275 2226.26 284.275C2241.64 284.275 2256.09 286.035 2269.62 289.556C2283.15 292.984 2295.56 297.988 2306.87 304.566C2318.26 311.052 2328.45 319.02 2337.44 328.471C2346.43 337.921 2354.03 348.623 2360.23 360.575C2366.53 372.528 2371.31 385.638 2374.55 399.907C2377.88 414.083 2379.55 429.232 2379.55 445.354C2379.55 453.044 2379.14 460.734 2378.3 468.424H2162.88C2164.09 478.616 2166.49 487.696 2170.11 495.665C2173.72 503.633 2178.4 510.397 2184.15 515.956C2189.89 521.422 2196.65 525.638 2204.44 528.603C2212.31 531.475 2221.07 532.912 2230.7 532.912C2244.97 532.912 2256.88 529.715 2266.42 523.322C2276.06 516.836 2283.61 507.107 2289.08 494.136H2378.16ZM2288.66 415.612C2282.08 376.604 2261.51 357.101 2226.95 357.101C2209.16 357.101 2194.89 362.104 2184.15 372.111C2173.49 382.117 2166.68 396.618 2163.71 415.612H2288.66ZM2608.24 596.704C2594.62 600.225 2581.88 602.865 2570.02 604.626C2558.25 606.479 2547.18 607.405 2536.8 607.405C2501.6 607.405 2475 597.167 2457.03 576.69C2439.05 556.214 2430.07 525.731 2430.07 485.241V368.219H2393.38V292.614H2430.07V222.011H2526.8V292.614H2608.24V368.219H2526.8V485.38C2526.8 501.595 2529.72 513.408 2535.55 520.82C2541.48 528.233 2550.98 531.939 2564.04 531.939C2569.42 531.939 2575.67 531.336 2582.81 530.132C2589.94 528.927 2598.42 527.121 2608.24 524.712V596.704ZM2731.41 599.066H2634.68V292.614H2731.41V403.381C2733.82 386.426 2737.34 371.138 2741.98 357.518C2746.7 343.805 2752.86 332.177 2760.46 322.634C2768.06 312.998 2777.23 305.585 2787.98 300.397C2798.73 295.208 2811.33 292.614 2825.78 292.614H2846.21V383.229H2804.79C2790.43 383.229 2778.53 384.851 2769.08 388.093C2759.63 391.336 2752.12 396.293 2746.56 402.964C2741 409.636 2737.06 418.113 2734.75 428.398C2732.52 438.683 2731.41 450.866 2731.41 464.95V599.066ZM2870.45 407.69C2870.45 388.603 2873.92 371.462 2880.87 356.267C2887.92 341.072 2897.97 328.146 2911.03 317.491C2924.1 306.743 2939.94 298.543 2958.56 292.892C2977.28 287.147 2998.31 284.275 3021.66 284.275C3045.47 284.275 3066.69 287.286 3085.31 293.309C3103.94 299.238 3119.69 307.902 3132.57 319.298C3145.45 330.602 3155.27 344.5 3162.03 360.992C3168.8 377.485 3172.18 396.247 3172.18 417.279V599.066H3075.45V522.627C3072.2 535.691 3067.15 547.458 3060.3 557.928C3053.53 568.398 3045.24 577.293 3035.42 584.612C3025.69 591.932 3014.62 597.538 3002.2 601.429C2989.88 605.413 2976.54 607.405 2962.18 607.405C2947.07 607.405 2933.32 605.228 2920.9 600.873C2908.58 596.611 2897.97 590.589 2889.07 582.806C2880.27 574.93 2873.46 565.526 2868.64 554.593C2863.83 543.567 2861.42 531.336 2861.42 517.902C2861.42 503.17 2864.33 490.013 2870.17 478.431C2876.1 466.757 2884.67 456.935 2895.88 448.967C2907.19 440.999 2920.95 434.93 2937.16 430.761C2953.47 426.499 2971.95 424.367 2992.61 424.367H3075.45V417.279C3075.45 407.736 3074.2 399.258 3071.69 391.846C3069.29 384.341 3065.67 378.041 3060.85 372.945C3056.13 367.756 3050.29 363.818 3043.34 361.131C3036.39 358.444 3028.38 357.101 3019.3 357.101C3010.22 357.101 3002.39 358.259 2995.81 360.575C2989.23 362.892 2983.77 366.227 2979.41 370.582C2975.15 374.844 2971.95 380.125 2969.82 386.426C2967.78 392.634 2966.76 399.722 2966.76 407.69H2870.45ZM3005.68 476.624C2990.11 476.624 2978.35 479.219 2970.38 484.407C2962.5 489.503 2958.56 497.101 2958.56 507.2C2958.56 517.299 2962.5 525.129 2970.38 530.688C2978.25 536.247 2989.42 539.027 3003.87 539.027C3014.06 539.027 3023.51 537.683 3032.22 534.996C3040.93 532.217 3048.48 528.464 3054.88 523.739C3061.27 519.013 3066.27 513.408 3069.89 506.922C3073.59 500.436 3075.45 493.441 3075.45 485.936V476.624H3005.68ZM3378.79 446.048L3517.77 599.066H3398.66L3298.74 485.519V599.066H3202.01V187.683H3298.74V418.252L3396.16 292.614H3507.35L3378.79 446.048ZM3632.62 599.066H3535.89V292.614H3632.62V403.381C3635.03 386.426 3638.55 371.138 3643.18 357.518C3647.9 343.805 3654.07 332.177 3661.66 322.634C3669.26 312.998 3678.43 305.585 3689.18 300.397C3699.93 295.208 3712.53 292.614 3726.98 292.614H3747.41V383.229H3706C3691.64 383.229 3679.73 384.851 3670.28 388.093C3660.83 391.336 3653.32 396.293 3647.77 402.964C3642.21 409.636 3638.27 418.113 3635.95 428.398C3633.73 438.683 3632.62 450.866 3632.62 464.95V599.066ZM3974.7 596.704C3961.08 600.225 3948.34 602.865 3936.48 604.626C3924.72 606.479 3913.65 607.405 3903.27 607.405C3868.06 607.405 3841.47 597.167 3823.49 576.69C3805.52 556.214 3796.53 525.731 3796.53 485.241V368.219H3759.84V292.614H3796.53V222.011H3893.26V292.614H3974.7V368.219H3893.26V485.38C3893.26 501.595 3896.18 513.408 3902.02 520.82C3907.95 528.233 3917.44 531.939 3930.51 531.939C3935.88 531.939 3942.14 531.336 3949.27 530.132C3956.41 528.927 3964.88 527.121 3974.7 524.712V596.704Z" fill="#192233"/>
<path d="M1718.39 262.177H1620.54V187.683H1718.39V262.177ZM1717.83 599.066H1621.1V292.614H1717.83V599.066ZM4098.43 262.177H4000.59V187.683H4098.43V262.177ZM4097.88 599.066H4001.15V292.614H4097.88V599.066Z" fill="#E41E2F"/>
<path d="M1.22337 426.23C3.00677 425.339 24.8534 426.23 49.8209 428.46C168.863 437.822 279.879 473.936 369.049 531.897L406.5 555.972L418.538 547.055C435.926 534.572 502.358 494.891 505.924 494.891C507.708 494.891 510.383 505.591 511.72 518.521C514.396 538.138 524.204 580.494 534.905 617.5C537.134 625.079 531.784 630.875 502.358 649.601C457.327 679.027 406.5 726.733 373.953 769.98C359.686 789.151 346.756 806.094 345.419 808.323C340.514 814.119 233.511 781.126 216.568 768.197C213.447 765.967 254.911 706.224 280.325 675.906C308.413 642.913 310.197 646.48 254.02 618.391C187.142 584.953 105.998 562.214 55.1711 561.768C30.2035 561.768 29.7577 561.768 23.07 545.272C11.4779 515.4 -4.57267 429.797 1.22337 426.23Z" fill="#E41E2F"/>
<path d="M111.794 124.392C150.137 84.7113 184.468 59.2979 189.818 67.3232C199.627 81.5904 215.677 115.921 229.499 151.589C237.97 172.544 245.103 190.378 245.549 191.269C247.778 193.944 288.796 168.977 323.127 143.563C365.482 111.908 408.73 68.2149 436.372 30.3177C447.965 13.3755 460.002 0 463.123 0C487.645 0 586.178 33.4387 586.178 41.9098C586.178 50.8268 536.243 119.933 505.925 153.372C445.735 219.804 360.132 285.789 299.943 312.094L274.529 323.241L277.204 384.768C278.988 422.665 278.096 445.849 275.421 445.849C273.192 445.849 255.358 440.053 235.74 432.919C216.569 425.786 188.035 417.315 172.43 414.64L144.787 408.844V379.418C144.787 318.782 122.495 226.937 95.298 172.989C84.1518 151.589 83.2601 154.71 111.794 124.392Z" fill="#E41E2F"/>
<path d="M463.569 240.759C479.174 228.276 501.466 207.766 512.167 195.283L531.784 172.99L568.789 190.824C629.425 218.913 678.468 232.288 748.467 238.53C782.797 241.651 783.243 242.097 789.931 257.702C796.618 273.306 810.44 327.7 815.79 358.463L818.465 375.852L768.084 372.731C740.441 371.393 704.773 366.935 688.723 363.814C672.672 360.247 658.851 358.463 657.959 359.355C657.068 359.801 656.622 385.66 656.622 415.532C657.068 498.014 674.901 575.146 708.786 642.023C715.028 654.061 719.932 666.545 719.932 669.22C719.932 677.691 640.571 749.027 631.208 749.027C616.941 749.027 564.331 611.26 547.389 531.007C535.797 474.384 530.446 357.126 538.918 330.821C541.593 323.687 540.255 320.12 534.013 318.337C516.179 312.095 443.506 275.09 439.047 269.739C435.481 265.281 441.277 258.593 463.569 240.759Z" fill="#E41E2F"/>
</svg>
